<?xml version="1.0" standalone="no"?><!DOCTYPE svg PUBLIC "-//W3C//DTD SVG 1.1//EN" "http://www.w3.org/Graphics/SVG/1.1/DTD/svg11.dtd"><svg t="1515421516716" class="icon" style="" viewBox="0 0 1024 1024" version="1.1" xmlns="http://www.w3.org/2000/svg" p-id="1983" xmlns:xlink="http://www.w3.org/1999/xlink" width="200" height="200"><defs><style type="text/css"></style></defs><path d="M1016.502713 984.362972l-324.291529-324.291529C754.503751 590.119953 792.287767 497.95759 792.287767 396.987466c0-218.598404-177.112575-395.774803-395.647154-395.774803C178.106033 1.276487 0.865809 178.389062 0.865809 396.987466c0 218.470755 177.176399 395.710979 395.774803 395.710979 100.714827 0 192.621893-37.656367 262.445733-99.629813l324.355354 324.355354c8.935409 8.935409 23.487361 8.743936 32.678068-0.44677S1025.501947 993.298381 1016.502713 984.362972L1016.502713 984.362972zM47.649059 396.987466c0-192.430419 156.561134-348.991553 348.991553-348.991553 192.430419 0 348.927729 156.561134 348.927729 348.991553s-156.49731 348.927729-348.927729 348.927729C204.210193 745.979019 47.649059 589.417885 47.649059 396.987466L47.649059 396.987466zM47.649059 396.987466" p-id="1984"></path></svg>