<?xml version="1.0" encoding="UTF-8"?>
<svg width="296px" height="154px" viewBox="0 0 296 154" version="1.1" xmlns="http://www.w3.org/2000/svg" xmlns:xlink="http://www.w3.org/1999/xlink">
    <!-- Generator: Sketch 56.2 (81672) - https://sketch.com -->
    <title>Group</title>
    <desc>Created with Sketch.</desc>
    <g id="404，500" stroke="none" stroke-width="1" fill="none" fill-rule="evenodd">
        <g id="500-copy-2" transform="translate(-534.000000, -230.000000)">
            <g id="Group" transform="translate(534.000000, 218.000000)">
                <path d="M19.801463,164.5 L75.4591849,164.5 L75.9156823,164.474299 C84.0915618,164.01399 90.5,157.44505 90.5,149.5 C90.5,143.560524 86.8985346,138.248524 81.3968526,135.832653 L80.5027282,135.44003 L80.4999481,134.463504 C80.4795844,127.310764 74.4528594,121.5 67,121.5 C66.5731051,121.5 66.1488282,121.519039 65.7280214,121.556861 L64.5827224,121.659798 L64.1858933,120.580524 C61.1010672,112.190584 53.0877992,106.5 44,106.5 C33.1661942,106.5 24.0611427,114.559309 22.6799186,125.204482 L22.5045773,126.555847 L21.1426337,126.510647 C20.9289072,126.503554 20.714678,126.5 20.5,126.5 C10.0065898,126.5 1.5,135.00659 1.5,145.5 C1.5,155.475544 9.21560473,163.734468 19.1081922,164.449865 L19.801463,164.5 Z" id="后" stroke="#34C3FF" stroke-width="3" fill="#EBF9FF"></path>
                <polygon id="Rectangle-Copy-3" stroke="#34C3FF" fill="#34C3FF" stroke-linecap="round" stroke-linejoin="round" transform="translate(223.165064, 67.982051) scale(-1, 1) rotate(60.000000) translate(-223.165064, -67.982051) " points="222.665064 65.4820508 222.165064 67.9820508 225.165064 66.9820508 223.665064 70.4820508 224.165064 67.9820508 221.165064 68.9820508"></polygon>
                <polygon id="Rectangle-Copy-6" stroke="#34C3FF" fill="#34C3FF" stroke-linecap="round" stroke-linejoin="round" transform="translate(14.200686, 113.139058) scale(-1, 1) rotate(50.000000) translate(-14.200686, -113.139058) " points="13.7006863 110.639058 13.2006863 113.139058 16.2006863 112.139058 14.7006863 115.639058 15.2006863 113.139058 12.2006863 114.139058"></polygon>
                <polygon id="Rectangle-Copy-7" stroke="#34C3FF" fill="#34C3FF" stroke-linecap="round" stroke-linejoin="round" transform="translate(3.200686, 107.139058) scale(-1, 1) rotate(50.000000) translate(-3.200686, -107.139058) " points="2.70068633 104.639058 2.20068633 107.139058 5.20068633 106.139058 3.70068633 109.639058 4.20068633 107.139058 1.20068633 108.139058"></polygon>
                <polygon id="Rectangle-Copy-4" stroke="#34C3FF" fill="#34C3FF" stroke-linecap="round" stroke-linejoin="round" transform="translate(236.278116, 62.401373) scale(-1, 1) rotate(40.000000) translate(-236.278116, -62.401373) " points="235.278116 57.4013727 234.278116 62.4013727 240.278116 60.4013727 237.278116 67.4013727 238.278116 62.4013727 232.278116 64.4013727"></polygon>
                <polygon id="Rectangle-Copy-5" stroke="#34C3FF" fill="#34C3FF" stroke-linecap="round" stroke-linejoin="round" transform="translate(259.427947, 52.211208) scale(-1, 1) rotate(80.000000) translate(-259.427947, -52.211208) " points="257.927947 44.7112079 256.427947 52.2112079 265.427947 49.2112079 260.927947 59.7112079 262.427947 52.2112079 253.427947 55.2112079"></polygon>
                <g id="中" transform="translate(58.000000, 0.000000)">
                    <path d="M35.776006,141.5 L134.625292,141.5 L135.33896,141.464805 C150.516822,140.716298 162.5,128.145842 162.5,112.863014 C162.5,101.358583 155.664833,91.1106518 145.315026,86.5953843 L144.460689,86.2226664 L144.416515,85.291614 C143.789214,72.0700664 132.881052,61.6232877 119.614679,61.6232877 C119.057946,61.6232877 118.503526,61.6416155 117.951983,61.6781062 L116.830465,61.752307 L116.444279,60.6967657 C110.734329,45.0900822 95.8612647,34.5 78.9908257,34.5 C58.8524234,34.5 41.9405578,49.5358445 39.4328038,69.3681633 L39.2620369,70.7186555 L37.9013582,70.679365 C37.5556879,70.6693835 37.2093413,70.6643836 36.8623853,70.6643836 C17.3327841,70.6643836 1.5,86.5209724 1.5,106.082192 C1.5,124.835745 16.0970001,140.309669 34.6960701,141.434678 L35.776006,141.5 Z" id="Combined-Shape" stroke="#34C3FF" stroke-width="3" fill="#FFFFFF" transform="translate(82.000000, 88.000000) scale(-1, 1) translate(-82.000000, -88.000000) "></path>
                    <path d="M42,98 C45.0492129,95.3333333 48.0715824,94 51.0671085,94 C54.0626347,94 57.0402652,95.3333333 60,98" id="Line-Copy" stroke="#34C3FF" stroke-width="2" stroke-linecap="round" transform="translate(51.000000, 96.000000) scale(1, -1) translate(-51.000000, -96.000000) "></path>
                    <path d="M101,98 C104.049213,95.3333333 107.071582,94 110.067109,94 C113.062635,94 116.040265,95.3333333 119,98" id="Line-Copy-2" stroke="#34C3FF" stroke-width="2" stroke-linecap="round" transform="translate(110.000000, 96.000000) scale(1, -1) translate(-110.000000, -96.000000) "></path>
                    <path d="M79.8523154,122.432988 C80.4972901,123.42757 81.0053144,124.511588 80.8771386,125.320858 C80.7207042,126.308546 79.6798634,127.156159 78.588893,126.983366 C77.4979226,126.810573 76.750436,125.80602 76.9664269,124.442307 C77.0247211,124.074252 77.0532118,123.894369 77.073095,123.768831 C75.7527274,124.119062 74.1835203,124.284226 72.5,124.284226 C67.8055796,124.284226 64,123 64,120 C64,118 66,116 68.5,117.047857 C70,118 75,118 76.5,117.047857 C79,116 81,118.001035 81,120 C81,120.994195 80.5820528,121.799955 79.8523154,122.432988 Z" id="Combined-Shape" stroke="#34C3FF" stroke-width="2" stroke-linecap="round" stroke-linejoin="round"></path>
                    <path d="M44.8214038,115.550124 C53.6649467,113.515515 63.5925976,107.414861 66.8749752,105.050124 C52.4323436,108.084734 49.8964452,95.6924292 40.468242,95.3623022 C33.4253599,95.1156968 26.3438863,98.8982006 27.2458101,106.460378 C28.1477339,114.022556 35.9778609,117.584734 44.8214038,115.550124 Z" id="Oval-2-Copy" stroke="#34C3FF" fill="#F7F7FA" stroke-linecap="round" stroke-linejoin="round" transform="translate(47.021427, 105.732908) rotate(17.000000) translate(-47.021427, -105.732908) "></path>
                    <g id="帽子" transform="translate(51.000000, 0.000000)">
                        <path d="M52.9401681,14.1424794 C45.9962182,12.2787101 38.6306298,14.9848058 34.5449525,20.9008279 L14.0929169,50.5151822 C13.6314544,51.1833755 13.3842951,51.9761954 13.3842951,52.7882483 C13.3842951,54.9973873 15.1751561,56.7882483 17.3842951,56.7882483 L76.0703519,56.7882483 C77.3447207,56.7882483 78.600651,56.4838056 79.7335683,55.9002695 C83.6614291,53.877131 85.2055117,49.0528928 83.1823732,45.125032 L73.3640341,26.0630303 C70.9129365,21.3043 66.5682016,17.8002693 61.3982958,16.4126568 L52.9401681,14.1424794 Z" id="Rectangle-10" stroke="#34C3FF" stroke-width="2" fill="#C2EDFF" transform="translate(50.540083, 34.505539) rotate(20.000000) translate(-50.540083, -34.505539) "></path>
                        <path d="M7.01736505,45.5499811 C4.2559413,45.5499811 2.01736505,47.7885574 2.01736505,50.5499811 L2.01736505,56.5499811 C2.01736505,59.3114049 4.2559413,61.5499811 7.01736505,61.5499811 L78.5780088,61.5499811 C81.3394325,61.5499811 83.5780088,59.3114049 83.5780088,56.5499811 L83.5780088,50.5499811 C83.5780088,47.7885574 81.3394325,45.5499811 78.5780088,45.5499811 L7.01736505,45.5499811 Z" id="Rectangle-8" stroke="#34C3FF" stroke-width="2" fill="#FFFFFF" transform="translate(42.797687, 53.549981) rotate(20.000000) translate(-42.797687, -53.549981) "></path>
                        <path d="M76,35 L81,71 C74.8498797,73.0042118 71.183213,73.3375451 70,72 C68.816787,70.6624549 62.1501203,60.9957882 50,43" id="Rectangle-10" fill="#C2EDFF"></path>
                        <path d="M80.3803116,69.0984253 L79.0190155,71.2751367 L78.7858783,69.5965489 C79.2951064,69.4448777 79.8266634,69.2788491 80.3803116,69.0984253 Z M74.063556,35.5958289 L76,35 L81,71 C74.8498797,73.0042118 71.183213,73.3375451 70,72 C68.816787,70.6624549 62.1501203,60.9957882 50,43 L51.9981104,42.3851968 C63.7919635,59.8493602 70.418477,69.4545297 71.4979931,70.6748522 C71.4790249,70.6534099 71.5454661,70.6872856 71.7585738,70.7314115 C72.1496651,70.8123905 72.7210135,70.8282201 73.4563382,70.7613724 C74.8035282,70.6389006 76.5864265,70.2516453 78.7858783,69.5965489 L74.063556,35.5958289 Z M80.3803116,69.0984253 L79.0190155,71.2751367 L78.7858783,69.5965489 C79.2951064,69.4448777 79.8266634,69.2788491 80.3803116,69.0984253 Z M74.063556,35.5958289 L76,35 L81,71 C74.8498797,73.0042118 71.183213,73.3375451 70,72 C68.816787,70.6624549 62.1501203,60.9957882 50,43 L51.9981104,42.3851968 C63.7919635,59.8493602 70.418477,69.4545297 71.4979931,70.6748522 C71.4790249,70.6534099 71.5454661,70.6872856 71.7585738,70.7314115 C72.1496651,70.8123905 72.7210135,70.8282201 73.4563382,70.7613724 C74.8035282,70.6389006 76.5864265,70.2516453 78.7858783,69.5965489 L74.063556,35.5958289 Z" id="Rectangle-10" fill="#34C3FF" fill-rule="nonzero"></path>
                        <circle id="Oval-3" stroke="#34C3FF" stroke-width="2" fill="#FFFFFF" cx="75.5" cy="74.5" r="10.5"></circle>
                    </g>
                </g>
                <g id="前" transform="translate(187.000000, 86.000000)" stroke="#34C3FF">
                    <path d="M23.7930875,71.5 L89.4642246,71.5 L89.9262269,71.4772502 C99.7466666,70.9936757 107.5,62.8725728 107.5,53 C107.5,45.5681478 103.077742,38.947832 96.3809313,36.0306282 L95.5259328,35.6581815 L95.4816688,34.7266347 C95.0775258,26.221349 88.0487756,19.5 79.5,19.5 C79.1410082,19.5 78.783548,19.5117991 78.427977,19.5352887 L77.3071343,19.6093335 L76.9206712,18.5546216 C73.1978927,8.39463763 63.5002756,1.5 52.5,1.5 C39.369143,1.5 28.342308,11.2889187 26.7074274,24.1988086 L26.5364476,25.5489564 L25.176082,25.5097339 C24.9511545,25.5032487 24.7257795,25.5 24.5,25.5 C11.7974508,25.5 1.5,35.7974508 1.5,48.5 C1.5,60.6779676 10.9937625,70.726965 23.09043,71.4575619 L23.7930875,71.5 Z" id="Combined-Shape-Copy" stroke-width="3" fill="#EBF9FF"></path>
                    <path d="M56,58 C59.0492129,57.3333333 62.0715824,57 65.0671085,57 C68.0626347,57 71.0402652,57.3333333 74,58" id="Line-Copy-5" stroke-width="2" stroke-linecap="round" transform="translate(65.000000, 57.500000) scale(1, -1) translate(-65.000000, -57.500000) "></path>
                    <path d="M43,42 C44.6940072,40.6666667 46.3731013,40 48.0372825,40 C49.7014637,40 51.3557029,40.6666667 53,42" id="Line-Copy-3" stroke-width="2" stroke-linecap="round" transform="translate(48.000000, 41.000000) scale(1, -1) translate(-48.000000, -41.000000) "></path>
                    <path d="M74,42 C75.6940072,40.6666667 77.3731013,40 79.0372825,40 C80.7014637,40 82.3557029,40.6666667 84,42" id="Line-Copy-4" stroke-width="2" stroke-linecap="round" transform="translate(79.000000, 41.000000) scale(1, -1) translate(-79.000000, -41.000000) "></path>
                </g>
            </g>
        </g>
    </g>
</svg>