<?xml version="1.0" encoding="UTF-8"?>
<svg width="12px" height="12px" viewBox="0 0 12 12" version="1.1" xmlns="http://www.w3.org/2000/svg" xmlns:xlink="http://www.w3.org/1999/xlink">
    <!-- Generator: Sketch 56.2 (81672) - https://sketch.com -->
    <title>OK Copy 6</title>
    <desc>Created with Sketch.</desc>
    <g id="OK-Copy-6" stroke="none" stroke-width="1" fill="none" fill-rule="evenodd">
        <path d="M6,12 C2.6862915,12 0,9.3137085 0,6 C0,2.6862915 2.6862915,0 6,0 C9.3137085,0 12,2.6862915 12,6 C12,9.3137085 9.3137085,12 6,12 Z M5.16941738,6.5732233 L3.90685425,5.31066017 C3.51632996,4.92013588 2.88316498,4.92013588 2.49264069,5.31066017 C2.1021164,5.70118446 2.1021164,6.33434944 2.49264069,6.72487373 L4.14860107,8.38083412 C4.19625889,8.52223872 4.27642096,8.65510062 4.3890873,8.76776695 C4.69783219,9.07651185 5.1582357,9.14116588 5.53049803,8.96172906 C5.66794865,8.91367852 5.79700123,8.83472675 5.90685425,8.72487373 C5.9783335,8.65339448 6.03672961,8.57378641 6.08204259,8.48902523 L9.80330086,4.76776695 C10.1938252,4.37724266 10.1938252,3.74407768 9.80330086,3.35355339 C9.41277657,2.9630291 8.77961159,2.9630291 8.3890873,3.35355339 L5.16941738,6.5732233 Z" id="Combined-Shape" fill="#4CAF50"></path>
    </g>
</svg>