<?xml version="1.0" encoding="UTF-8"?>
<svg width="16px" height="16px" viewBox="0 0 16 16" version="1.1" xmlns="http://www.w3.org/2000/svg" xmlns:xlink="http://www.w3.org/1999/xlink">
    <!-- Generator: Sketch 56.2 (81672) - https://sketch.com -->
    <title>attachment</title>
    <desc>Created with Sketch.</desc>
    <g id="attachment" stroke="none" stroke-width="1" fill="none" fill-rule="evenodd">
        <rect id="Rectangle-29" fill="#575757" x="4" y="3" width="1" height="9"></rect>
        <path d="M6,11 C6,12.1045695 6.8954305,13 8,13 L8,13 C9.1045695,13 10,12.1045695 10,11" id="Oval" stroke="#575757"></path>
        <path d="M10,3 C10,1.34314575 8.65685425,0 7,0 C5.34314575,0 4,1.34314575 4,3" id="Oval-Copy" stroke="#575757"></path>
        <path d="M4,12 C4,14.209139 5.790861,16 8,16 L8,16 C10.209139,16 12,14.209139 12,12" id="Oval-Copy-2" stroke="#575757"></path>
        <rect id="Rectangle-29-Copy" fill="#575757" x="6" y="5" width="1" height="6"></rect>
        <rect id="Rectangle-29-Copy-3" fill="#575757" x="11" y="5" width="1" height="7"></rect>
        <rect id="Rectangle-29-Copy-2" fill="#575757" x="9" y="3" width="1" height="8"></rect>
    </g>
</svg>