<?xml version="1.0" standalone="no"?><!DOCTYPE svg PUBLIC "-//W3C//DTD SVG 1.1//EN" "http://www.w3.org/Graphics/SVG/1.1/DTD/svg11.dtd"><svg t="1522216479081" class="icon" style="" viewBox="0 0 1024 1024" version="1.1" xmlns="http://www.w3.org/2000/svg" p-id="1958" xmlns:xlink="http://www.w3.org/1999/xlink" width="200" height="200"><defs><style type="text/css"></style></defs><path d="M812.301474 328.542316c-56.939789 0-101.551158 44.611368-101.551158 101.551158 0 56.953263 44.611368 101.564632 101.551158 101.564631 56.953263 0 101.564632-44.611368 101.564631-101.564631 0-56.939789-44.611368-101.551158-101.564631-101.551158z m0 163.799579c-35.476211 0-62.234947-26.758737-62.234948-62.248421 0-35.476211 26.758737-62.234947 62.234948-62.234948 35.489684 0 62.248421 26.758737 62.248421 62.234948 0 35.489684-26.758737 62.248421-62.248421 62.248421zM211.698526 328.542316c-56.953263 0-101.564632 44.611368-101.564631 101.551158 0 56.953263 44.611368 101.564632 101.564631 101.564631 56.939789 0 101.551158-44.611368 101.551158-101.564631 0-56.939789-44.611368-101.551158-101.551158-101.551158z m0 163.799579c-35.489684 0-62.248421-26.758737-62.248421-62.248421 0-35.476211 26.758737-62.234947 62.248421-62.234948 35.476211 0 62.234947 26.758737 62.234948 62.234948 0 35.489684-26.758737 62.248421-62.234948 62.248421zM750.08 211.698526c0-56.953263-44.611368-101.564632-101.564632-101.564631s-101.564632 44.611368-101.564631 101.564631c0 56.939789 44.597895 101.551158 101.564631 101.551158 56.953263 0 101.564632-44.611368 101.564632-101.551158z m-101.564632 62.234948c-35.489684 0-62.248421-26.758737-62.248421-62.234948 0-35.489684 26.758737-62.248421 62.248421-62.248421 35.489684 0 62.248421 26.758737 62.248421 62.248421 0 35.476211-26.758737 62.234947-62.248421 62.234948zM375.498105 110.133895c-56.953263 0-101.564632 44.611368-101.564631 101.564631 0 56.939789 44.611368 101.551158 101.564631 101.551158 56.939789 0 101.551158-44.611368 101.551158-101.551158 0-56.953263-44.611368-101.564632-101.551158-101.564631z m0 163.799579c-35.489684 0-62.248421-26.758737-62.248421-62.234948 0-35.489684 26.758737-62.248421 62.248421-62.248421 35.476211 0 62.234947 26.758737 62.234948 62.248421 0 35.476211-26.758737 62.234947-62.234948 62.234948zM512 0.929684C230.184421 0.943158 0.943158 230.184421 0.943158 512 0.943158 793.815579 230.170947 1023.056842 512 1023.056842c56.939789 0 101.551158-44.597895 101.551158-101.551158 0-26.381474-9.795368-50.701474-27.594105-68.486737-10.361263-10.374737-16.060632-24.832-16.060632-40.690526 0-35.503158 26.758737-62.261895 62.234947-62.261895h98.277053c161.374316 0 292.648421-131.274105 292.648421-292.648421C1023.056842 205.702737 793.829053 0.916211 512 0.916211z m218.408421 709.820632h-98.277053c-56.939789 0-101.551158 44.611368-101.551157 101.564631 0 26.381474 9.795368 50.701474 27.580631 68.486737 10.374737 10.374737 16.074105 24.832 16.074105 40.690527 0 35.503158-26.758737 62.261895-62.234947 62.261894C251.877053 983.754105 40.245895 772.122947 40.245895 512 40.245895 251.877053 251.877053 40.245895 512 40.245895c260.122947 0 471.754105 187.149474 471.754105 417.158737 0 139.695158-113.650526 253.345684-253.345684 253.345684z" p-id="1959"></path></svg>