<?xml version="1.0" standalone="no"?><!DOCTYPE svg PUBLIC "-//W3C//DTD SVG 1.1//EN" "http://www.w3.org/Graphics/SVG/1.1/DTD/svg11.dtd"><svg t="1514301554649" class="icon" style="" viewBox="0 0 1024 1024" version="1.1" xmlns="http://www.w3.org/2000/svg" p-id="1434" xmlns:xlink="http://www.w3.org/1999/xlink" width="200" height="200"><defs><style type="text/css"></style></defs><path d="M1021.234 123.08c-0.012-5.808-10.144-16.76-16.924-16.76H552.202V27.244C552.202 12.2 540.006 0 524.956 0h-28.68c-15.048 0-27.246 12.198-27.246 27.246V106.32H163.254C150.96 106.32 0 219.25 0 252.28c0 40.02 150.96 148.836 163.254 148.836h305.776v119.342l-25.416 0.834-316.196 10.372c-5.168 0.168-12.888 10.986-12.77 15.416 0.546 20.372 116.598 72.452 117.448 98.382 0.702 21.432-111.642 93.22-110.948 113.064 0.156 4.486 8.018 5.324 13.254 5.154l316.196-10.372 18.43-0.604V1024H552.2V749.974l231.752-7.604c9.496-0.312 123.464-93.524 122.626-119.034-1.012-30.904-120.114-113.292-129.61-112.98L552.2 517.728v-116.614h452.108c6.692 0 16.732-10.866 16.764-16.6 0.16-26.374-147.734-98.66-147.734-132.236 0-27.748 147.952-103.504 147.896-129.196z m-199.906 503.36c0.646 17.414-70.234 59.27-77.552 59.482l-184.672 5.424-73.158 2.148-209.804 6.16c-4.032 0.12-4.402 0.49-4.516-2.576-0.244-6.618 51.152-40.46 50.61-55.09-0.656-17.702-58.254-47.816-57.7-54.52 0.25-3.018 1.58-1.87 5.56-1.984l215.85-6.356 73.156-2.154 177.942-5.24c7.316-0.212 83.504 33.608 84.284 54.708zM557.28 338.514H216.672c-9.14 0-110.006-53.85-110.006-82.72 0-23.826 98.032-82.34 107.172-82.34H807.62c5.038 0 35.046-2.342 35.046 1.848 0 9.06-94.376 59.628-94.376 79.646 0 24.224 91.292 72.696 90.292 81.836-0.454 4.116-25.99 1.73-30.964 1.73H557.28z" p-id="1435"></path></svg>