<?xml version="1.0" encoding="UTF-8"?>
<svg width="14px" height="14px" viewBox="0 0 14 14" version="1.1" xmlns="http://www.w3.org/2000/svg" xmlns:xlink="http://www.w3.org/1999/xlink">
    <!-- Generator: Sketch 51.3 (57544) - http://www.bohemiancoding.com/sketch -->
    <title>Celander Copy</title>
    <desc>Created with Sketch.</desc>
    <defs></defs>
    <g id="Celander-Copy" stroke="none" stroke-width="1" fill="none" fill-rule="evenodd">
        <rect id="Rectangle-5" fill="#8E8E93" x="10" y="0" width="1" height="4"></rect>
        <rect id="Rectangle-27" fill="#8E8E93" x="3" y="0" width="1" height="4"></rect>
        <path d="M8.5,13 C9.16666667,12.3333333 9.5,11.1666667 9.5,9.5 L9.61943,9.5298575 C11.2927757,9.94819392 12.9884191,8.93080789 13.4067555,7.25746219 C13.468687,7.00973627 13.5000035,6.75535003 13.5000037,6.5 L13.5000075,3.5 C13.500008,2.94771525 13.0522931,2.49999958 12.5000084,2.49999907 C12.5000081,2.49999907 12.5000078,2.49999907 12.5000075,2.49999907 L1.5,2.5 C0.94771525,2.5 0.5,2.94771525 0.5,3.5 L0.5,12.500006 C0.5,13.0522908 0.94771525,13.500006 1.5,13.500006 L12.5000075,13.5000085 C13.0522922,13.5000085 13.5000075,13.0522933 13.5000075,12.5000085 C13.5000075,12.5000077 13.5000075,12.5000068 13.5000075,12.500006 L13.5,10.5" id="Path-8" stroke="#8E8E93" stroke-linecap="round" stroke-linejoin="round"></path>
        <rect id="Rectangle-28" fill="#8E8E93" x="1" y="6" width="11" height="1"></rect>
        <rect id="Rectangle-28-Copy-2" fill="#8E8E93" x="0.5" y="2.5" width="13" height="1.5"></rect>
        <rect id="Rectangle-28-Copy" fill="#8E8E93" x="1" y="9" width="7" height="1"></rect>
        <rect id="Rectangle-29" fill="#8E8E93" x="3" y="5" width="1" height="7"></rect>
        <rect id="Rectangle-29-Copy" fill="#8E8E93" x="6" y="5" width="1" height="7"></rect>
        <rect id="Rectangle-29-Copy-2" fill="#8E8E93" x="9" y="5" width="1" height="3"></rect>
    </g>
</svg>