<?xml version="1.0" encoding="UTF-8"?>
<svg width="14px" height="14px" viewBox="0 0 14 14" version="1.1" xmlns="http://www.w3.org/2000/svg" xmlns:xlink="http://www.w3.org/1999/xlink">
    <!-- Generator: Sketch 49.2 (51160) - http://www.bohemiancoding.com/sketch -->
    <title>Celander Copy</title>
    <desc>Created with Sketch.</desc>
    <defs></defs>
    <g id="Celander-Copy" stroke="none" stroke-width="1" fill="none" fill-rule="evenodd">
        <rect id="Rectangle-5" fill="#575757" x="10" y="0" width="1" height="4"></rect>
        <rect id="Rectangle-27" fill="#575757" x="3" y="0" width="1" height="4"></rect>
        <path d="M8.49999541,12.9999943 C9.16666169,12.333328 9.49999483,11.1666619 9.49999483,9.49999617 L9.61942467,9.52985363 C11.2927694,9.94818983 12.9884119,8.93080437 13.4067481,7.2574596 C13.4686795,7.00973381 13.499996,6.75534771 13.4999963,6.49999781 L13.5,3.5 C13.5000005,2.94771525 13.0522857,2.49999958 12.5000009,2.49999907 C12.5000006,2.49999907 12.5000003,2.49999907 12.5,2.49999907 L1.5,2.5 C0.94771525,2.5 0.5,2.94771525 0.5,3.5 L0.5,12.5 C0.5,13.0522847 0.94771525,13.5 1.5,13.5 L12.5,13.5000025 C13.0522847,13.5000025 13.5,13.0522872 13.5,12.5000025 C13.5,12.5000017 13.5,12.5000008 13.5,12.5 L13.4999925,10.4999956" id="Path-8" stroke="#575757" stroke-linecap="round" stroke-linejoin="round"></path>
        <rect id="Rectangle-28" fill="#575757" x="1" y="6" width="11" height="1"></rect>
        <rect id="Rectangle-28-Copy-2" fill="#575757" x="0.5" y="2.5" width="13" height="1.5"></rect>
        <rect id="Rectangle-28-Copy" fill="#575757" x="1" y="9" width="7" height="1"></rect>
        <rect id="Rectangle-29" fill="#575757" x="3" y="5" width="1" height="7"></rect>
        <rect id="Rectangle-29-Copy" fill="#575757" x="6" y="5" width="1" height="7"></rect>
        <rect id="Rectangle-29-Copy-2" fill="#575757" x="9" y="5" width="1" height="3"></rect>
    </g>
</svg>